<svg width="58" height="52" viewBox="0 0 58 52" fill="none" xmlns="http://www.w3.org/2000/svg">
<path d="M26.207 30.3208C25.8086 30.5708 25.3555 30.6958 24.8477 30.6958C24.3398 30.6958 23.8867 30.5708 23.4883 30.3208C23.0898 30.5708 22.7188 30.6958 22.375 30.6958C22.0391 30.6958 21.7617 30.6646 21.543 30.6021C21.3242 30.5474 21.1328 30.4692 20.9688 30.3677C20.6328 30.1646 20.4648 29.9106 20.4648 29.606C20.4648 29.4497 20.5078 29.313 20.5938 29.1958C20.7656 29.3286 20.9844 29.395 21.25 29.395C21.9453 29.395 22.4258 29.0981 22.6914 28.5044V22.7739C22.6914 22.4146 22.6172 22.1489 22.4688 21.9771C22.2344 21.688 21.832 21.4028 21.2617 21.1216C21.793 20.8794 22.1367 20.6646 22.293 20.4771C22.5586 20.1724 22.6914 19.8286 22.6914 19.4458L22.7031 16.9146C22.7031 16.2271 22.4883 15.8833 22.0586 15.8833C21.6367 15.8833 21.2695 16.063 20.957 16.4224C20.8477 16.3286 20.793 16.1958 20.793 16.0239C20.793 15.8521 20.8203 15.6606 20.875 15.4497C20.9375 15.2388 21.0391 15.0239 21.1797 14.8052C21.5156 14.2817 22 13.9028 22.6328 13.6685C22.9453 13.5513 23.2305 13.4927 23.4883 13.4927C23.7461 13.4927 23.9609 13.5083 24.1328 13.5396C24.75 12.7583 25.2852 12.3403 25.7383 12.2856C26.1914 12.231 26.5508 12.2974 26.8164 12.4849C27.0898 12.6646 27.2266 12.9692 27.2266 13.3989V13.6802C27.2266 13.7896 27.2227 13.9067 27.2148 14.0317C27.207 14.1567 27.1992 14.2817 27.1914 14.4067C27.1836 14.5317 27.1719 14.6489 27.1562 14.7583C27.1406 14.8677 27.1211 15.0239 27.0977 15.2271C27.082 15.4302 27.0664 15.6528 27.0508 15.895C27.0195 16.3794 27.0039 16.8989 27.0039 17.4536V19.4458C27.0039 19.8286 27.0859 20.1138 27.25 20.3013C27.5078 20.606 27.9023 20.8794 28.4336 21.1216C27.8633 21.4028 27.5 21.6333 27.3438 21.813C27.1172 22.0942 27.0039 22.4146 27.0039 22.7739V28.5044C27.2695 29.0981 27.75 29.395 28.4453 29.395C28.7109 29.395 28.9297 29.3286 29.1016 29.1958C29.1875 29.313 29.2305 29.4497 29.2305 29.606C29.2305 29.7544 29.1836 29.895 29.0898 30.0278C29.0039 30.1606 28.8828 30.2739 28.7266 30.3677C28.3672 30.5864 27.957 30.6958 27.4961 30.6958C27.0352 30.6958 26.6055 30.5708 26.207 30.3208ZM23.8164 27.356C24.207 27.2075 24.4219 26.6958 24.4609 25.8208C24.5078 24.9458 24.5312 23.7388 24.5312 22.1997C24.5312 20.6528 24.5273 19.6489 24.5195 19.188C24.5195 18.7192 24.5156 18.356 24.5078 18.0981C24.5 17.8403 24.4844 17.6489 24.4609 17.5239L24.4023 17.1021C24.332 16.688 24.1367 16.4067 23.8164 16.2583C23.8164 18.5005 23.7969 19.7388 23.7578 19.9731C23.7266 20.1997 23.6914 20.3755 23.6523 20.5005C23.5586 20.7896 23.3008 21.0005 22.8789 21.1333C23.3477 21.2974 23.6133 21.4927 23.6758 21.7192C23.7695 22.0942 23.8164 23.4653 23.8164 25.8325V27.356ZM30.7422 28.5396C31.1797 28.2661 31.4531 28.0474 31.5625 27.8833C31.6797 27.7114 31.7734 27.5591 31.8438 27.4263C32.0312 27.0747 32.3047 26.8013 32.6641 26.606C33.0312 26.4028 33.4258 26.3013 33.8477 26.3013C34.7227 26.3013 35.3555 26.6685 35.7461 27.4028C36.0586 27.981 36.4297 28.3599 36.8594 28.5396C36.7422 28.6099 36.6328 28.6724 36.5312 28.7271C36.4297 28.7817 36.3359 28.8442 36.25 28.9146C36.0703 29.063 35.8906 29.2935 35.7109 29.606C35.5312 29.9106 35.2734 30.1802 34.9375 30.4146C34.6094 30.6411 34.2461 30.7544 33.8477 30.7544C33.4492 30.7544 33.0625 30.6411 32.6875 30.4146C32.3203 30.1802 32.0391 29.8872 31.8438 29.5356C31.6172 29.145 31.4102 28.8989 31.2227 28.7974C31.043 28.688 30.8828 28.6021 30.7422 28.5396ZM33.3438 29.2661C33.2969 29.1802 33.2578 29.0825 33.2266 28.9731C33.2031 28.856 33.1914 28.645 33.1914 28.3403C33.1914 28.0278 33.3398 27.6489 33.6367 27.2036C33.4648 27.2036 33.3125 27.2388 33.1797 27.3091C33.0469 27.3716 32.9297 27.4692 32.8281 27.6021C32.7266 27.7349 32.6523 27.8403 32.6055 27.9185C32.5664 27.9888 32.5156 28.063 32.4531 28.1411C32.3047 28.3599 32.1836 28.4927 32.0898 28.5396C32.2148 28.6099 32.3281 28.7231 32.4297 28.8794C32.5391 29.0278 32.6641 29.188 32.8047 29.3599C33.0156 29.6099 33.293 29.7349 33.6367 29.7349C33.5898 29.6489 33.5391 29.5708 33.4844 29.5005C33.4375 29.4224 33.3906 29.3442 33.3438 29.2661Z" fill="white"/>
<path d="M11.1818 4.28116C18.9799 -0.256213 27.8294 1.23434 36.6364 1.23434C41.9192 1.23434 46.2355 4.91308 51.3434 6.3688C56.2485 7.76671 57 18.3984 57 22.1107C57 29.1893 54.9636 35.8564 54.9636 42.8743C54.9636 51.2551 41.3265 50.9991 35.6182 50.9991C29.1717 50.9991 26.2685 44.9055 19.3273 44.9055C12.821 44.9055 1 43.6005 1 34.7494C1 27.6399 3.84479 22.4783 5.86465 15.6785C7.30396 10.8331 5.96101 7.31894 11.1818 4.28116Z" stroke="#EBBC53" stroke-width="2" stroke-linecap="round" stroke-linejoin="round"/>
</svg>
