<svg width="85" height="85" viewBox="0 0 85 85" fill="none" xmlns="http://www.w3.org/2000/svg">
<path d="M69.6021 61.4219H15.398C14.5698 61.4219 13.7962 61.0127 13.3299 60.3285C6.17825 49.841 5.62962 29.6669 5.58812 26.6721C5.58553 26.5547 5.58423 26.4361 5.58423 26.318C5.58423 24.9374 6.70224 23.8174 8.08289 23.8148H8.08808C9.46614 23.8148 10.5861 24.9296 10.5913 26.3083C10.5913 26.3252 10.5919 26.473 10.5978 26.735C10.8183 33.8575 16.6813 39.5831 23.8563 39.5831C31.1707 39.5831 37.1214 33.6324 37.1214 26.318C37.1214 24.9354 38.2426 23.8148 39.6246 23.8148H45.3748C46.7574 23.8148 47.878 24.9354 47.878 26.318C47.878 33.6324 53.8293 39.5831 61.1437 39.5831C68.3252 39.5831 74.1921 33.8471 74.4029 26.7156C74.4074 26.4652 74.4087 26.3252 74.4087 26.3089C74.4139 24.9296 75.5332 23.8148 76.9119 23.8148H76.9165C78.2971 23.8174 79.4151 24.9374 79.4151 26.318C79.4151 26.4367 79.4138 26.5547 79.4119 26.6728C79.3697 29.6669 78.8211 49.8417 71.6701 60.3292C71.2038 61.0127 70.4295 61.4219 69.6021 61.4219Z" fill="#FFF780"/>
<path d="M76.9165 23.8148C76.9152 23.8148 76.9139 23.8148 76.9119 23.8148C75.5339 23.8148 74.4139 24.9296 74.4087 26.3083C74.4087 26.3252 74.4081 26.4652 74.4029 26.7156C74.1921 33.8464 68.3251 39.5831 61.1437 39.5831C53.8293 39.5831 47.8786 33.6324 47.8786 26.318C47.8786 24.9354 46.7574 23.8148 45.3754 23.8148H42.5006V61.4212H69.602C70.4302 61.4212 71.2038 61.012 71.6701 60.3285C78.8217 49.841 79.3704 29.6662 79.4119 26.6721C79.4145 26.5547 79.4158 26.4361 79.4158 26.318C79.4151 24.9374 78.2971 23.8174 76.9165 23.8148Z" fill="#FFC02E"/>
<path d="M42.5 15.2734C38.0403 15.2734 34.4119 18.9018 34.4119 23.3615C34.4119 27.8212 38.0403 31.4489 42.5 31.4489C46.9597 31.4489 50.5881 27.8212 50.5881 23.3615C50.5881 18.9018 46.9597 15.2734 42.5 15.2734Z" fill="#FFC02E"/>
<path d="M42.5006 15.2734V31.4496C46.9604 31.4489 50.5881 27.8212 50.5881 23.3615C50.5881 18.9018 46.9597 15.2741 42.5006 15.2734Z" fill="#FFA73B"/>
<path d="M8.08807 21.5152C3.62835 21.5152 0 25.1436 0 29.6033C0 34.063 3.62835 37.6914 8.08807 37.6914C12.5478 37.6914 16.1755 34.063 16.1755 29.6033C16.1755 25.1436 12.5478 21.5152 8.08807 21.5152Z" fill="#FFC02E"/>
<path d="M76.9119 21.5152C72.4522 21.5152 68.8245 25.1436 68.8245 29.6033C68.8245 34.0624 72.4522 37.6907 76.9119 37.6907C81.3716 37.6907 85 34.0624 85 29.6033C85 25.1436 81.3716 21.5152 76.9119 21.5152Z" fill="#FFA73B"/>
<path d="M69.6021 69.6338H15.3979C14.0154 69.6338 12.8947 68.5132 12.8947 67.1306V59.6658H72.1053V67.1306C72.1053 68.5132 70.9846 69.6338 69.6021 69.6338Z" fill="#FFC02E"/>
<path d="M42.5006 69.6338H69.602C70.9846 69.6338 72.1052 68.5132 72.1052 67.1306V59.6658H42.5006V69.6338Z" fill="#FFA73B"/>
</svg>
