<svg width="85" height="85" viewBox="0 0 85 85" fill="none" xmlns="http://www.w3.org/2000/svg">
<g clip-path="url(#clip0)">
<path d="M16.1206 58.6202C16.1206 73.1893 27.9311 84.9996 42.5 84.9996C57.0689 84.9996 68.8794 73.1893 68.8794 58.6202C68.8794 43.965 61.5518 32.2408 66.4682 21.9822C66.4682 21.9822 58.6206 23.4478 54.2242 35.1719C54.2242 35.1719 39.569 20.5167 45.692 -0.000549316C45.692 -0.000549316 30.776 5.86146 32.3358 24.9132C33.6736 41.2502 30.776 43.965 30.776 43.965C30.776 30.7754 20.4639 24.9132 20.4639 24.9132C23.4482 41.034 16.1206 45.4306 16.1206 58.6202Z" fill="#FFB446"/>
<path d="M61.5413 64.8679C61.5413 75.8404 53.069 85.2075 42.0986 84.9958C31.7744 84.797 24.093 76.9418 24.9139 66.6808C25.2803 62.1011 28.7609 54.6819 34.4398 47.1712L38.2257 49.461C38.1034 40.1796 42.5 27.8448 42.5 27.8448C45.388 40.841 61.5413 44.2096 61.5413 64.8679Z" fill="#FFDC64"/>
<path d="M35.1724 55.6896C33.7068 64.4828 30.7758 67.6841 30.7758 73.2758C30.7758 79.138 36.0251 85 42.5 85C49.0218 85 54.2421 79.6714 54.224 73.1497C54.1751 55.6337 43.9656 46.8966 43.9656 46.8966C45.4312 55.6898 41.0346 60.0862 41.0346 60.0862C39.2031 57.3393 35.1724 55.6896 35.1724 55.6896Z" fill="white"/>
</g>
<defs>
<clipPath id="clip0">
<rect width="85" height="85" fill="white"/>
</clipPath>
</defs>
</svg>
