<svg width="54" height="54" viewBox="0 0 54 54" fill="none" xmlns="http://www.w3.org/2000/svg">
<path d="M27 5.90625C14.0063 5.90625 3.375 13.5 3.375 22.7812C3.375 23.7938 4.21875 24.4688 5.0625 24.4688H48.9375C49.95 24.4688 50.625 23.7938 50.625 22.7812C50.625 22.6125 50.625 22.6125 50.625 22.4438C50.4562 13.1625 39.825 5.90625 27 5.90625ZM6.91875 21.0938C8.26875 14.3438 16.7063 9.28125 27 9.28125C37.2938 9.28125 45.9 14.5125 47.0812 21.0938H6.91875Z" fill="white"/>
<path d="M52.3125 26.1562H1.6875C0.675 26.1562 0 26.8312 0 27.8438C0 28.8563 0.675 29.5312 1.6875 29.5312H52.3125C53.325 29.5312 54 28.8563 54 27.8438C54 26.8312 53.325 26.1562 52.3125 26.1562Z" fill="white"/>
<path d="M52.3125 31.2188H1.6875C0.675 31.2188 0 31.8937 0 32.9062C0 33.9188 0.675 34.5938 1.6875 34.5938H52.3125C53.325 34.5938 54 33.9188 54 32.9062C54 31.8937 53.325 31.2188 52.3125 31.2188Z" fill="white"/>
<path d="M52.3125 36.2812H1.6875C0.675 36.2812 0 36.9562 0 37.9688C0 38.9813 0.675 39.6562 1.6875 39.6562H3.375V42.3563C3.375 45.0563 5.56875 48.0938 8.4375 48.0938H45.7313C48.4313 48.0938 50.625 45.0563 50.625 42.3563V39.6562H52.3125C53.325 39.6562 54 38.9813 54 37.9688C54 36.9562 53.325 36.2812 52.3125 36.2812ZM47.25 42.3563C47.25 43.3688 46.2375 44.7188 45.7313 44.7188H8.4375C7.7625 44.7188 6.75 43.3688 6.75 42.3563V39.6562H47.25V42.3563Z" fill="white"/>
</svg>
