<svg width="155" height="97" viewBox="0 0 155 97" fill="none" xmlns="http://www.w3.org/2000/svg">
<path d="M46.9399 96C61.9728 94.5839 89.5394 95.7288 103.865 91.9052C111.462 89.8776 134.825 73.069 134.825 73.069C145.816 69.6738 151.021 51.8864 153.8 42.3578C155.587 36.2309 144.812 25.0051 144.812 18.5025C144.812 9.20904 124.171 8.18287 116.227 6.49097C106.172 4.34952 96.1613 5.37011 86.1481 3.59296C76.5664 1.89241 67.8061 1 58.0773 1C48.9316 1 40.1702 3.39639 31.3143 4.9657C25.2876 6.03365 19.7817 6.82355 14.1262 8.85514C9.79768 10.41 7.76078 12.5354 5.90577 16.2527C1.84941 24.3813 2.88227 13.8278 1.23509 13.6597C1.17673 13.6538 0.838327 19.7901 1.09497 20.5234C2.09867 23.3914 8.24969 20.5515 9.87585 20.2565C12.4836 19.7834 17.7056 20.6032 18.7034 18.1593" stroke="#EBBC53" stroke-width="2" stroke-linecap="round" stroke-linejoin="round"/>
</svg>
