<svg width="127" height="124" viewBox="0 0 127 124" fill="none" xmlns="http://www.w3.org/2000/svg">
<path d="M87.5487 122.864C71.3515 122.864 53.1322 124.624 38.0178 115.478C31.4616 111.51 25.4163 106.263 19.0639 101.66C12.8298 97.1431 5.75775 92.6152 3.00369 83.385C-5.92268 53.4682 16.8035 37.3167 35.1241 28.3053C47.4516 22.2417 62.3714 18.5629 75.588 18.5629C83.8688 18.5629 90.1902 11.6858 98.6413 11.6858C104.526 11.6858 111.524 9.98037 117.113 7.67426C118.228 7.2142 126.929 3.76726 125.215 2.0071C123.461 0.205682 118.248 1.37034 116.148 1.37034C110.395 1.37034 109.78 0.723883 115.811 2.77121C118.641 3.73223 121.233 3.66268 124.203 3.66268C128.556 3.66268 123.859 9.96868 122.081 12.5773C120.536 14.8427 118.801 16.3163 118.801 19.709" stroke="#EBBC53" stroke-width="2" stroke-linecap="round" stroke-linejoin="round"/>
</svg>
