<svg width="181" height="68" viewBox="0 0 181 68" fill="none" xmlns="http://www.w3.org/2000/svg">
<path d="M1 35.868C3.91903 24.9203 21.9875 15.9144 34.389 13.9915C48.9849 11.7283 63.614 9.39794 78.1217 6.79277C87.6838 5.07569 97.5493 3.66624 107.009 1.79109C114.513 0.303533 123.376 1.37038 131.019 1.37038C141.28 1.37038 152.238 7.11171 160.174 12.4956C168.816 18.358 172.125 29.5041 178.289 36.8964C181.063 40.2235 180.225 50.3037 177.485 53.4908C174.556 56.8972 171.643 57.2088 167.302 57.7913C164.818 58.1245 159.03 62.9811 162.103 58.9599C163.419 57.239 163.74 55.92 164.086 53.9582C164.343 52.5026 166.538 51.2836 165.748 53.3505C164.704 56.0821 161.784 58.5234 160.388 61.1102C160.016 61.8005 171.962 66.5005 173.68 67" stroke="white" stroke-width="2" stroke-linecap="round" stroke-linejoin="round"/>
</svg>
